HIERARCHY
ROOT Hips
{
 OFFSET 0.000000 0.000000 0.000000
 CHANNELS 6 Xposition Yposition Zposition Yrotation Xrotation Zrotation
 JOINT Chest
 {
  OFFSET 0.000000 10.383400 0.001500
  CHANNELS 3 Yrotation Xrotation Zrotation
  JOINT Chest2
  {
   OFFSET 0.000000 10.418200 -0.003100
   CHANNELS 3 Yrotation Xrotation Zrotation
   JOINT Chest3
   {
    OFFSET 0.000000 10.375100 0.000000
    CHANNELS 3 Yrotation Xrotation Zrotation
    JOINT Chest4
    {
     OFFSET 0.000000 10.364600 0.000000
     CHANNELS 3 Yrotation Xrotation Zrotation
     JOINT Neck
     {
      OFFSET 0.000000 15.642200 0.000000
      CHANNELS 3 Yrotation Xrotation Zrotation
      JOINT Head
      {
       OFFSET 0.000000 9.697300 -0.006500
       CHANNELS 3 Yrotation Xrotation Zrotation
       End Site
       {
        OFFSET 0.000000 18.492200 -0.003400
       }
      }
     }
     JOINT RightCollar
     {
      OFFSET -3.166800 10.349300 0.000000
      CHANNELS 3 Yrotation Xrotation Zrotation
      JOINT RightShoulder
      {
       OFFSET -14.729700 0.000000 0.000000
       CHANNELS 3 Yrotation Xrotation Zrotation
       JOINT RightElbow
       {
        OFFSET 0.000000 -32.224300 0.000000
        CHANNELS 3 Yrotation Xrotation Zrotation
        JOINT RightWrist
        {
         OFFSET 0.000000 -26.084100 0.000000
         CHANNELS 3 Yrotation Xrotation Zrotation
         End Site
         {
          OFFSET 0.000000 -19.319400 0.000000
         }
        }
       }
      }
     }
     JOINT LeftCollar
     {
      OFFSET 3.166800 10.349300 0.000000
      CHANNELS 3 Yrotation Xrotation Zrotation
      JOINT LeftShoulder
      {
       OFFSET 14.729700 0.000000 0.000000
       CHANNELS 3 Yrotation Xrotation Zrotation
       JOINT LeftElbow
       {
        OFFSET 0.000000 -32.224300 0.000000
        CHANNELS 3 Yrotation Xrotation Zrotation
        JOINT LeftWrist
        {
         OFFSET 0.000000 -26.084100 0.000000
         CHANNELS 3 Yrotation Xrotation Zrotation
         End Site
         {
          OFFSET 0.000000 -19.319400 0.000000
         }
        }
       }
      }
     }
    }
   }
  }
 }
 JOINT RightHip
 {
  OFFSET -8.428900 -0.007500 -0.000800
  CHANNELS 3 Yrotation Xrotation Zrotation
  JOINT RightKnee
  {
   OFFSET 0.000000 -43.834600 0.000700
   CHANNELS 3 Yrotation Xrotation Zrotation
   JOINT RightAnkle
   {
    OFFSET 0.000000 -42.757000 0.001200
    CHANNELS 3 Yrotation Xrotation Zrotation
    JOINT RightToe
    {
     OFFSET 0.000000 -6.946900 15.649300
     CHANNELS 3 Yrotation Xrotation Zrotation
     End Site
     {
      OFFSET 0.000000 -1.580800 6.825800
     }
    }
   }
  }
 }
 JOINT LeftHip
 {
  OFFSET 8.428900 -0.007500 -0.000800
  CHANNELS 3 Yrotation Xrotation Zrotation
  JOINT LeftKnee
  {
   OFFSET 0.000000 -43.834600 0.000700
   CHANNELS 3 Yrotation Xrotation Zrotation
   JOINT LeftAnkle
   {
    OFFSET 0.000000 -42.757000 0.001200
    CHANNELS 3 Yrotation Xrotation Zrotation
    JOINT LeftToe
    {
     OFFSET 0.000000 -6.946900 15.649300
     CHANNELS 3 Yrotation Xrotation Zrotation
     End Site
     {
      OFFSET 0.000000 -1.580800 6.825800
     }
    }
   }
  }
 }
}
MOTION
Frames: 16
Frame Time: 0.008333
126.729257 126.914832 19.239548 -13.085950 -27.666986 -2.274888 -1.132525 22.392195 2.131248 -0.206469 3.149650 0.322666 -0.322657 5.097119 0.515302 -1.003522 18.921404 1.823993 1.114415 9.341840 -0.732920 2.518463 -18.400894 -1.940694 2.208541 -6.946600 -2.596799 4.629360 -22.727492 2.082507 -69.639114 -9.826169 65.881324 -17.478206 -14.970823 11.568639 -7.481135 -9.157844 -4.678656 -4.395159 -20.518250 3.635577 52.198851 -12.946040 -67.283995 20.588883 -22.784579 6.492200 -2.297804 -41.920668 1.784773 -23.778443 72.577148 -24.589553 1.251203 0.964935 7.015596 0.005795 -0.007609 0.002572 -7.056695 -35.035700 -9.104523 -4.123188 69.092688 -1.808004 -17.397444 -4.130760 -5.225639 -0.000495 0.001509 -0.000220
126.730155 126.914871 19.238027 -13.081770 -27.671664 -2.273096 -1.132585 22.390049 2.128057 -0.204514 3.143278 0.320888 -0.327572 5.105649 0.517063 -1.004470 18.914852 1.818745 1.114501 9.350463 -0.727284 2.515472 -18.404532 -1.941870 2.216684 -6.963970 -2.597527 4.621144 -22.709837 2.088676 -69.641401 -9.823666 65.875524 -17.466026 -14.968991 11.567799 -7.479214 -9.164471 -4.673225 -4.393675 -20.501063 3.628504 52.192716 -12.954088 -67.287226 20.586267 -22.784257 6.495444 -2.293609 -41.919785 1.778101 -23.784589 72.581548 -24.599052 1.246014 0.968952 7.027622 0.004934 -0.006752 0.002190 -7.055787 -35.033212 -9.107262 -4.122087 69.093294 -1.810061 -17.409735 -4.127450 -5.226075 -0.001261 0.001620 -0.000560
126.731026 126.914752 19.236122 -13.081048 -27.673836 -2.270993 -1.130852 22.385887 2.125404 -0.206949 3.147640 0.321706 -0.326933 5.102901 0.516290 -1.004428 18.907532 1.815381 1.114116 9.352694 -0.726816 2.514346 -18.400578 -1.940695 2.223646 -6.965349 -2.599971 4.617722 -22.706260 2.090779 -69.639468 -9.825761 65.879799 -17.466874 -14.974980 11.557847 -7.477791 -9.171406 -4.673075 -4.396100 -20.488184 3.629678 52.182569 -12.949874 -67.295461 20.597928 -22.783233 6.503029 -2.287448 -41.921456 1.774336 -23.759513 72.582254 -24.589339 1.244742 0.982787 7.051098 -0.001035 -0.006432 -0.000459 -7.048726 -35.033719 -9.113575 -4.135462 69.096969 -1.823011 -17.393282 -4.125335 -5.226924 0.000057 0.000349 0.000025
126.731728 126.914695 19.234121 -13.079839 -27.675803 -2.270973 -1.134655 22.371166 2.120358 -0.208942 3.156970 0.324252 -0.327384 5.102425 0.515783 -1.006728 18.894882 1.807191 1.115998 9.366991 -0.721964 2.518058 -18.398432 -1.953692 2.233174 -6.951238 -2.596545 4.622607 -22.711328 2.087072 -69.637830 -9.835319 65.876317 -17.477338 -14.975818 11.552185 -7.468146 -9.167039 -4.675122 -4.411435 -20.478408 3.636549 52.188567 -12.945241 -67.295573 20.603262 -22.779546 6.512690 -2.269637 -41.927760 1.760432 -23.770375 72.588667 -24.592008 1.243474 0.999224 7.061504 -0.001560 -0.005234 -0.000692 -7.046888 -35.033580 -9.115618 -4.142181 69.098144 -1.828998 -17.385404 -4.123659 -5.230166 0.000984 -0.000042 0.000437
126.732041 126.915387 19.233331 -13.078011 -27.686169 -2.272645 -1.130122 22.372128 2.119499 -0.210450 3.151321 0.322703 -0.331495 5.105678 0.517614 -1.000994 18.896043 1.804638 1.110313 9.368121 -0.721103 2.520124 -18.394169 -1.956081 2.232030 -6.948541 -2.592124 4.627331 -22.714427 2.083824 -69.623524 -9.847306 65.888320 -17.475089 -14.986042 11.540871 -7.468238 -9.169821 -4.674759 -4.445884 -20.478399 3.657317 52.209905 -12.929197 -67.295003 20.607065 -22.778843 6.523354 -2.268842 -41.919465 1.759441 -23.765551 72.589167 -24.590925 1.245678 1.007202 7.068227 -0.001329 -0.002441 -0.000590 -7.043221 -35.024343 -9.111614 -4.151207 69.098224 -1.836629 -17.410554 -4.120859 -5.231902 -0.000056 0.000142 -0.000025
126.732068 126.916579 19.233213 -13.064743 -27.701250 -2.281131 -1.135640 22.380042 2.120803 -0.210918 3.154802 0.323096 -0.322540 5.089948 0.511577 -1.007084 18.904696 1.809848 1.112136 9.361384 -0.731023 2.512280 -18.384401 -1.947858 2.231949 -6.949418 -2.592600 4.632893 -22.718130 2.083333 -69.626246 -9.848129 65.887335 -17.445484 -14.971931 11.544375 -7.469853 -9.169849 -4.674098 -4.454350 -20.468730 3.663417 52.212579 -12.925578 -67.298592 20.608665 -22.777505 6.530259 -2.270785 -41.908576 1.757245 -23.757671 72.590482 -24.583848 1.242035 1.021806 7.075714 -0.000536 -0.005202 -0.000238 -7.045064 -35.008305 -9.110589 -4.180300 69.096088 -1.857123 -17.425613 -4.117319 -5.236295 -0.000342 0.000788 -0.000152
126.732763 126.917057 19.231773 -13.059242 -27.708108 -2.284679 -1.135788 22.375808 2.120549 -0.209922 3.154760 0.322688 -0.323884 5.089386 0.511950 -1.008120 18.904099 1.809648 1.111616 9.368292 -0.730182 2.513401 -18.385602 -1.953107 2.232028 -6.961903 -2.597595 4.638948 -22.709217 2.087988 -69.631775 -9.849092 65.883422 -17.440345 -14.965356 11.539970 -7.470384 -9.168093 -4.674488 -4.471475 -20.470914 3.677129 52.222403 -12.910981 -67.297041 20.607411 -22.780213 6.536922 -2.264452 -41.909554 1.751459 -23.776454 72.594377 -24.598223 1.244260 1.035261 7.080892 0.001124 -0.006589 0.000499 -7.044845 -35.000955 -9.110530 -4.190941 69.095084 -1.865542 -17.423060 -4.114936 -5.238915 -0.000321 0.001380 -0.000143
126.733732 126.917270 19.229824 -13.056297 -27.711842 -2.286618 -1.133724 22.365390 2.119298 -0.207452 3.145762 0.320635 -0.327874 5.100250 0.514662 -1.009262 18.909953 1.811246 1.112251 9.369271 -0.731805 2.512544 -18.382604 -1.952507 2.232956 -6.965504 -2.597944 4.646808 -22.716116 2.083073 -69.638523 -9.843125 65.872242 -17.433428 -14.957113 11.542994 -7.469052 -9.172664 -4.677202 -4.482716 -20.466859 3.685833 52.234143 -12.894066 -67.312781 20.588605 -22.770551 6.560423 -2.260307 -41.911971 1.747745 -23.792125 72.597347 -24.614629 1.250266 1.046112 7.090256 0.000927 -0.005443 0.000411 -7.044040 -34.996662 -9.111602 -4.179381 69.095389 -1.853286 -17.417690 -4.114318 -5.242391 0.000375 0.002100 0.000167
126.734725 126.918096 19.229131 -13.053931 -27.723193 -2.286790 -1.132020 22.365928 2.116066 -0.207658 3.145193 0.320517 -0.328203 5.099369 0.514498 -1.011519 18.915229 1.813576 1.113793 9.350556 -0.744017 2.511476 -18.370465 -1.947543 2.234081 -6.962024 -2.597189 4.655667 -22.732818 2.075885 -69.641437 -9.837790 65.870697 -17.427402 -14.956551 11.536473 -7.466830 -9.175855 -4.681619 -4.495608 -20.463562 3.694290 52.243080 -12.887667 -67.310024 20.588205 -22.758651 6.558939 -2.252546 -41.906783 1.741750 -23.812302 72.602482 -24.636081 1.256161 1.051751 7.100814 0.000923 -0.005797 0.000410 -7.042870 -34.984458 -9.112800 -4.181920 69.093960 -1.856918 -17.415360 -4.112534 -5.244396 0.000253 0.002042 0.000113
126.735223 126.919298 19.229025 -13.035548 -27.738180 -2.296381 -1.143059 22.371740 2.114623 -0.208023 3.144478 0.320391 -0.328716 5.098273 0.514248 -1.011945 18.914244 1.813221 1.112677 9.350831 -0.745892 2.520452 -18.377807 -1.966507 2.231733 -6.964841 -2.595060 4.657428 -22.725476 2.079086 -69.649750 -9.842748 65.881983 -17.417325 -14.946352 11.527099 -7.467907 -9.167490 -4.680741 -4.504711 -20.464991 3.693256 52.249720 -12.888711 -67.303540 20.587458 -22.753560 6.556934 -2.258847 -41.894847 1.737658 -23.839693 72.606040 -24.663017 1.261855 1.056060 7.111867 0.000630 -0.006939 0.000280 -7.056615 -34.968625 -9.112378 -4.179859 69.091811 -1.852608 -17.421935 -4.110799 -5.248336 0.000419 0.001998 0.000186
126.736130 126.919760 19.227660 -13.027014 -27.745132 -2.300600 -1.146523 22.369264 2.113182 -0.208531 3.144082 0.320257 -0.329637 5.100323 0.514129 -1.013445 18.906928 1.811052 1.111823 9.355064 -0.745734 2.522524 -18.376615 -1.969565 2.227935 -6.973738 -2.597569 4.660281 -22.709085 2.088043 -69.644199 -9.847202 65.898094 -17.411896 -14.951218 11.514892 -7.466156 -9.156038 -4.680340 -4.507619 -20.468436 3.692466 52.253811 -12.890638 -67.310789 20.581381 -22.750886 6.565394 -2.261769 -41.890462 1.736123 -23.863815 72.606101 -24.688515 1.267488 1.062261 7.121334 0.000013 -0.005468 0.000006 -7.058918 -34.961872 -9.112352 -4.187453 69.089958 -1.853281 -17.438726 -4.108650 -5.252544 -0.000617 0.001687 -0.000274
126.737000 126.919876 19.225655 -13.022878 -27.748314 -2.303540 -1.148006 22.367641 2.113769 -0.208916 3.139349 0.319448 -0.330061 5.107535 0.514885 -1.016691 18.899377 1.806174 1.112254 9.355808 -0.743768 2.525268 -18.375029 -1.973184 2.227511 -6.974455 -2.593073 4.676028 -22.725068 2.078102 -69.652504 -9.837063 65.881608 -17.406383 -14.949589 11.517529 -7.468496 -9.168565 -4.684127 -4.498806 -20.454385 3.694540 52.258201 -12.892935 -67.314795 20.573983 -22.744389 6.572373 -2.262253 -41.890545 1.735146 -23.877900 72.606758 -24.701757 1.271760 1.071364 7.127990 0.000336 -0.003736 0.000149 -7.059781 -34.958186 -9.110953 -4.202367 69.089066 -1.865302 -17.431297 -4.108802 -5.254565 -0.000090 0.001836 -0.000040
126.737780 126.920486 19.224747 -13.017182 -27.758137 -2.306077 -1.152196 22.372517 2.113487 -0.210495 3.135587 0.317584 -0.328868 5.105831 0.516279 -1.025381 18.893085 1.803067 1.115379 9.366191 -0.745933 2.528573 -18.372119 -1.974958 2.234675 -6.961261 -2.592086 4.689219 -22.745634 2.070435 -69.658187 -9.832225 65.869137 -17.401237 -14.954411 11.516706 -7.463635 -9.163659 -4.686681 -4.494463 -20.449804 3.695027 52.258104 -12.893583 -67.317848 20.573101 -22.744464 6.579476 -2.264948 -41.882359 1.733397 -23.883490 72.605762 -24.708630 1.278633 1.081186 7.136364 0.000778 -0.002504 0.000345 -7.062652 -34.948086 -9.109927 -4.223559 69.087374 -1.883401 -17.432083 -4.109181 -5.256329 -0.000744 0.001785 -0.000330
126.738002 126.921662 19.224832 -13.008513 -27.774592 -2.311725 -1.159649 22.380784 2.111880 -0.211013 3.137814 0.318284 -0.331871 5.096350 0.512866 -1.021377 18.907083 1.807198 1.111992 9.364387 -0.749982 2.531946 -18.369302 -1.972714 2.235616 -6.967960 -2.595408 4.698476 -22.757136 2.069023 -69.664658 -9.834277 65.860219 -17.395064 -14.958535 11.514356 -7.464101 -9.173303 -4.686819 -4.487852 -20.442171 3.692614 52.255824 -12.901872 -67.340949 20.567009 -22.745674 6.590181 -2.266124 -41.867855 1.729399 -23.901726 72.604902 -24.720006 1.285763 1.089404 7.137953 0.002342 -0.004966 0.001040 -7.069249 -34.931302 -9.110009 -4.235440 69.088010 -1.892467 -17.422297 -4.110282 -5.259593 -0.000461 0.001362 -0.000205
126.738760 126.922021 19.223607 -13.004365 -27.782205 -2.314139 -1.164383 22.379763 2.109638 -0.210283 3.144516 0.319655 -0.331788 5.094684 0.512260 -1.027848 18.903800 1.801941 1.115093 9.370323 -0.749804 2.534353 -18.365781 -1.976997 2.250753 -6.987350 -2.600461 4.694822 -22.750145 2.074451 -69.674000 -9.858805 65.858276 -17.400655 -14.953948 11.499585 -7.458763 -9.171196 -4.683556 -4.491947 -20.457175 3.691673 52.256779 -12.894474 -67.331079 20.577710 -22.742604 6.556828 -2.253613 -41.860487 1.719320 -23.897397 72.600836 -24.706724 1.286897 1.099790 7.144565 0.001880 -0.005801 0.000835 -7.073325 -34.925534 -9.107592 -4.249800 69.089098 -1.904739 -17.420846 -4.109917 -5.264215 -0.000708 0.000799 -0.000314
126.739684 126.922095 19.221998 -12.999895 -27.786819 -2.316624 -1.166724 22.367558 2.105710 -0.209267 3.153623 0.323043 -0.333691 5.098868 0.512870 -1.032361 18.900873 1.799681 1.117147 9.376885 -0.749809 2.532995 -18.339339 -1.984795 2.255566 -6.996617 -2.603178 4.695485 -22.749045 2.076523 -69.675615 -9.866754 65.848199 -17.389858 -14.959146 11.494902 -7.455741 -9.170210 -4.682315 -4.493051 -20.457664 3.691382 52.258631 -12.892618 -67.329104 20.579734 -22.740759 6.551429 -2.250667 -41.856396 1.716321 -23.892803 72.600531 -24.700207 1.281110 1.110297 7.155914 0.000350 -0.003910 0.000156 -7.079566 -34.921177 -9.109120 -4.247664 69.092761 -1.908500 -17.377027 -4.116017 -5.260994 0.001363 -0.000063 0.000605
